<?xml version="1.0" standalone="no"?>
<!DOCTYPE svg PUBLIC "-//W3C//DTD SVG 20010904//EN"
 "http://www.w3.org/TR/2001/REC-SVG-20010904/DTD/svg10.dtd">
<svg version="1.0" xmlns="http://www.w3.org/2000/svg"
 width="542.000000pt" height="542.000000pt" viewBox="0 0 542.000000 542.000000"
 preserveAspectRatio="xMidYMid meet">
<metadata>
Created by potrace 1.14, written by Peter Selinger 2001-2017
</metadata>
<g transform="translate(0.000000,542.000000) scale(0.100000,-0.100000)"
fill="#000000" stroke="none">
<path d="M2529 5416 c-2 -2 -38 -7 -79 -11 -117 -10 -153 -14 -180 -20 -14 -3
-36 -7 -50 -10 -288 -52 -625 -177 -880 -326 -49 -28 -218 -140 -245 -161
-275 -217 -468 -419 -635 -667 -53 -79 -170 -275 -170 -286 0 -1 -22 -49 -49
-106 -79 -169 -170 -452 -195 -609 -3 -19 -13 -80 -22 -135 -19 -111 -27 -478
-14 -605 15 -141 21 -195 25 -210 3 -8 7 -32 11 -54 15 -96 58 -262 101 -386
232 -676 719 -1229 1368 -1552 172 -86 457 -187 598 -212 15 -3 35 -7 45 -10
39 -12 170 -31 287 -43 151 -15 502 -8 635 12 75 11 105 17 205 38 844 181
1565 773 1909 1567 90 208 169 478 192 653 2 15 6 47 10 70 16 107 21 217 18
392 -2 105 -6 204 -8 220 -2 17 -7 57 -10 90 -28 251 -125 578 -246 830 -269
557 -709 996 -1270 1268 -96 46 -213 96 -240 102 -8 2 -33 10 -55 18 -151 55
-378 109 -515 123 -30 3 -71 8 -90 10 -42 7 -446 15 -451 10z"/>
</g>
</svg>
